<?xml version="1.0" encoding="utf-8"?>
<!-- Generator: Adobe Illustrator 24.0.3, SVG Export Plug-In . SVG Version: 6.00 Build 0)  -->
<svg version="1.1" xmlns="http://www.w3.org/2000/svg" xmlns:xlink="http://www.w3.org/1999/xlink" x="0px" y="0px"
	 viewBox="0 0 1465 824" style="enable-background:new 0 0 1465 824;" xml:space="preserve">
<g id="root">
	<g id="polygons">
		<polygon class="st0" data-iso3code="BHS" points="333.3,122 306.3,122 299.1,149 326.1,149 	"/>
		<polygon class="st0" data-iso3code="ISL" points="667.6,50 640.6,50 633.4,77 660.4,77 	"/>
		<polygon class="st0" data-iso3code="IRL" points="657.3,122 630.3,122 623.1,149 650.1,149 	"/>
		<polygon class="st0" data-iso3code="GBR" points="684.3,122 657.3,122 650.1,149 677.1,149 	"/>
		<polygon class="st0" data-iso3code="MLT" points="691.9,329 664.9,329 657.6,356 684.6,356 	"/>
		<polygon class="st0" data-iso3code="CPV" points="527.3,473 500.3,473 493.1,500 520.1,500 	"/>
		<polygon class="st0" data-iso3code="STP" points="565.5,599 538.5,599 531.3,626 558.3,626 	"/>
		<polygon class="st0" data-iso3code="COM" points="812.1,653 785.1,653 777.8,680 804.8,680 	"/>
		<polygon class="st0" data-iso3code="MDG" points="831.8,680 804.8,680 797.6,707 824.6,707 	"/>
		<polygon class="st0" data-iso3code="MUS" points="885.8,680 858.8,680 851.6,707 878.6,707 	"/>
		<polygon class="st0" data-iso3code="SYC" points="900.3,626 873.3,626 866.1,653 893.1,653 	"/>
		<polygon class="st0" data-iso3code="BHR" points="954,392 927,392 919.8,419 946.8,419 	"/>
		<polygon class="st0" data-iso3code="LKA" points="1008,392 981,392 973.8,419 1000.8,419 	"/>
		<polygon class="st0" data-iso3code="JPN" points="1233.8,221 1206.8,221 1199.6,248 1226.6,248 	"/>
		<polygon class="st0" data-iso3code="SGP" points="1107,392 1080,392 1072.8,419 1099.8,419 	"/>
		<polygon class="st0" data-iso3code="PHL" points="1153.8,419 1126.8,419 1119.5,446 1146.5,446 	"/>
		<polygon class="st0" data-iso3code="BRN" points="1119.5,446 1092.5,446 1085.3,473 1112.3,473 	"/>
		<polygon class="st0" data-iso3code="IDN" points="1112.3,473 1085.3,473 1078.1,500 1105.1,500 	"/>
		<polygon class="st0" data-iso3code="TLS" points="1132.1,500 1105.1,500 1097.8,527 1124.8,527 	"/>
		<polygon class="st0" data-iso3code="PLW" points="1207.8,419 1180.8,419 1173.5,446 1200.5,446 	"/>
		<polygon class="st0" data-iso3code="PNG" points="1186.1,500 1159.1,500 1151.8,527 1178.8,527 	"/>
		<polygon class="st0" data-iso3code="SLB" points="1205.8,527 1178.8,527 1171.6,554 1198.6,554 	"/>
		<polygon class="st0" data-iso3code="VUT" points="1198.6,554 1171.6,554 1164.4,581 1191.4,581 	"/>
		<polygon class="st0" data-iso3code="FJI" points="1225.6,554 1198.6,554 1191.4,581 1218.4,581 	"/>
		<polygon class="st0" data-iso3code="NRU" points="1253.9,482 1226.9,482 1219.6,509 1246.6,509 	"/>
		<polygon class="st0" data-iso3code="FSM" points="1234.1,455 1207.1,455 1199.9,482 1226.9,482 	"/>
		<polygon class="st0" data-iso3code="TUV" points="1273.6,509 1246.6,509 1239.4,536 1266.4,536 	"/>
		<polygon class="st0" data-iso3code="MHL" points="1295.4,428 1268.4,428 1261.1,455 1288.1,455 	"/>
		<polygon class="st0" data-iso3code="KIR" points="1349.4,428 1322.4,428 1315.1,455 1342.1,455 	"/>
		<polygon class="st0" data-iso3code="WSM" points="1327.6,509 1300.6,509 1293.4,536 1320.4,536 	"/>
		<polygon class="st0" data-iso3code="TON" points="1272.4,581 1245.4,581 1238.1,608 1265.1,608 	"/>
		<polygon class="st0" data-iso3code="NZL" points="1184.6,707 1157.6,707 1150.4,734 1177.4,734 	"/>
		<polygon class="st0" data-iso3code="MDV" points="968.9,437 941.9,437 934.7,464 961.7,464 	"/>
		<polygon class="st0" data-iso3code="CUB" points="326.1,149 299.1,149 291.9,176 318.9,176 	"/>
		<polygon class="st0" data-iso3code="JAM" points="318.9,176 291.9,176 284.6,203 311.6,203 	"/>
		<polygon class="st0" data-iso3code="HTI" points="345.9,176 318.9,176 311.6,203 338.6,203 	"/>
		<polygon class="st0" data-iso3code="DOM" points="372.9,176 345.9,176 338.6,203 365.6,203 	"/>
		<polygon class="st0" data-iso3code="KNA" points="331.4,230 304.4,230 297.2,257 324.2,257 	"/>
		<polygon class="st0" data-iso3code="ATG" points="358.4,230 331.4,230 324.2,257 351.2,257 	"/>
		<polygon class="st0" data-iso3code="DMA" points="378.2,257 351.2,257 343.9,284 370.9,284 	"/>
		<polygon class="st0" data-iso3code="LCA" points="397.9,284 370.9,284 363.7,311 390.7,311 	"/>
		<polygon class="st0" data-iso3code="VCT" points="417.7,311 390.7,311 383.5,338 410.5,338 	"/>
		<polygon class="st0" data-iso3code="BRB" points="444.7,311 417.7,311 410.5,338 437.5,338 	"/>
		<polygon class="st0" data-iso3code="GRD" points="410.5,338 383.5,338 376.2,365 403.2,365 	"/>
		<polygon class="st0" data-iso3code="TTO" points="380.4,383 353.4,383 346.2,410 373.2,410 	"/>
		<polygon class="st0" data-iso3code="MEX" points="220.5,140 184.5,140 174.9,176 210.9,176 	"/>
		<polygon class="st0" data-iso3code="BLZ" points="256.5,140 220.5,140 210.9,176 246.9,176 	"/>
		<polygon class="st0" data-iso3code="GTM" points="210.9,176 174.9,176 165.2,212 201.2,212 	"/>
		<polygon class="st0" data-iso3code="SLV" points="201.2,212 165.2,212 155.6,248 191.6,248 	"/>
		<polygon class="st0" data-iso3code="HND" points="237.2,212 201.2,212 191.6,248 227.6,248 	"/>
		<polygon class="st0" data-iso3code="NIC" points="227.6,248 191.6,248 181.9,284 217.9,284 	"/>
		<polygon class="st0" data-iso3code="CRI" points="253.9,284 217.9,284 208.3,320 244.3,320 	"/>
		<polygon class="st0" data-iso3code="PAN" points="280.3,320 244.3,320 234.6,356 270.6,356 	"/>
		<polygon class="st0" data-iso3code="PRT" points="578.6,248 542.6,248 532.9,284 568.9,284 	"/>
		<polygon class="st0" data-iso3code="ESP" points="614.6,248 578.6,248 568.9,284 604.9,284 	"/>
		<polygon class="st0" data-iso3code="AND" points="624.2,212 588.2,212 578.6,248 614.6,248 	"/>
		<polygon class="st0" data-iso3code="MCO" points="660.2,212 624.2,212 614.6,248 650.6,248 	"/>
		<polygon class="st0" data-iso3code="LUX" points="696.2,212 660.2,212 650.6,248 686.6,248 	"/>
		<polygon class="st0" data-iso3code="SVN" points="732.2,212 696.2,212 686.6,248 722.6,248 	"/>
		<polygon class="st0" data-iso3code="ITA" points="722.6,248 686.6,248 676.9,284 712.9,284 	"/>
		<polygon class="st0" data-iso3code="SMR" points="712.9,284 676.9,284 667.3,320 703.3,320 	"/>
		<polygon class="st0" data-iso3code="MNE" points="820.9,284 784.9,284 775.3,320 811.3,320 	"/>
		<polygon class="st0" data-iso3code="ALB" points="775.3,320 739.3,320 729.6,356 765.6,356 	"/>
		<polygon class="st0" data-iso3code="MAR" points="630,392 594,392 584.4,428 620.4,428 	"/>
		<polygon class="st0" data-iso3code="MRT" points="602.4,428 566.4,428 556.7,464 592.7,464 	"/>
		<polygon class="st0" data-iso3code="GNB" points="592.7,464 556.7,464 547.1,500 583.1,500 	"/>
		<polygon class="st0" data-iso3code="GIN" points="583.1,500 547.1,500 537.4,536 573.4,536 	"/>
		<polygon class="st0" data-iso3code="LBR" points="619.1,500 583.1,500 573.4,536 609.4,536 	"/>
		<polygon class="st0" data-iso3code="CIV" points="609.4,536 573.4,536 563.8,572 599.8,572 	"/>
		<polygon class="st0" data-iso3code="NGA" points="645.4,536 609.4,536 599.8,572 635.8,572 	"/>
		<polygon class="st0" data-iso3code="GNQ" points="635.8,572 599.8,572 590.1,608 626.1,608 	"/>
		<polygon class="st0" data-iso3code="AGO" points="626.1,608 590.1,608 580.5,644 616.5,644 	"/>
		<polygon class="st0" data-iso3code="GAB" points="662.1,608 626.1,608 616.5,644 652.5,644 	"/>
		<polygon class="st0" data-iso3code="ZMB" points="652.5,644 616.5,644 606.8,680 642.8,680 	"/>
		<polygon class="st0" data-iso3code="BWA" points="688.5,644 652.5,644 642.8,680 678.8,680 	"/>
		<polygon class="st0" data-iso3code="NAM" points="678.8,680 642.8,680 633.2,716 669.2,716 	"/>
		<polygon class="st0" data-iso3code="SWZ" points="714.8,680 678.8,680 669.2,716 705.2,716 	"/>
		<polygon class="st0" data-iso3code="ZAF" points="705.2,716 669.2,716 659.5,752 695.5,752 	"/>
		<polygon class="st0" data-iso3code="LSO" points="750.8,680 714.8,680 705.2,716 741.2,716 	"/>
		<polygon class="st0" data-iso3code="ZWE" points="724.5,644 688.5,644 678.8,680 714.8,680 	"/>
		<polygon class="st0" data-iso3code="MWI" points="698.1,608 662.1,608 652.5,644 688.5,644 	"/>
		<polygon class="st0" data-iso3code="MOZ" points="734.1,608 698.1,608 688.5,644 724.5,644 	"/>
		<polygon class="st0" data-iso3code="COG" points="671.8,572 635.8,572 626.1,608 662.1,608 	"/>
		<polygon class="st0" data-iso3code="BDI" points="707.8,572 671.8,572 662.1,608 698.1,608 	"/>
		<polygon class="st0" data-iso3code="RWA" points="743.8,572 707.8,572 698.1,608 734.1,608 	"/>
		<polygon class="st0" data-iso3code="TZA" points="779.8,572 743.8,572 734.1,608 770.1,608 	"/>
		<polygon class="st0" data-iso3code="CMR" points="681.4,536 645.4,536 635.8,572 671.8,572 	"/>
		<polygon class="st0" data-iso3code="COD" points="717.4,536 681.4,536 671.8,572 707.8,572 	"/>
		<polygon class="st0" data-iso3code="UGA" points="753.4,536 717.4,536 707.8,572 743.8,572 	"/>
		<polygon class="st0" data-iso3code="KEN" points="789.4,536 753.4,536 743.8,572 779.8,572 	"/>
		<polygon class="st0" data-iso3code="GHA" points="655.1,500 619.1,500 609.4,536 645.4,536 	"/>
		<polygon class="st0" data-iso3code="TGO" points="691.1,500 655.1,500 645.4,536 681.4,536 	"/>
		<polygon class="st0" data-iso3code="BEN" points="727.1,500 691.1,500 681.4,536 717.4,536 	"/>
		<polygon class="st0" data-iso3code="CAF" points="763.1,500 727.1,500 717.4,536 753.4,536 	"/>
		<polygon class="st0" data-iso3code="ETH" points="799.1,500 763.1,500 753.4,536 789.4,536 	"/>
		<polygon class="st0" data-iso3code="SOM" points="835.1,500 799.1,500 789.4,536 825.4,536 	"/>
		<polygon class="st0" data-iso3code="SLE" points="628.7,464 592.7,464 583.1,500 619.1,500 	"/>
		<polygon class="st0" data-iso3code="BFA" points="664.7,464 628.7,464 619.1,500 655.1,500 	"/>
		<polygon class="st0" data-iso3code="TCD" points="700.7,464 664.7,464 655.1,500 691.1,500 	"/>
		<polygon class="st0" data-iso3code="SSD" points="736.7,464 700.7,464 691.1,500 727.1,500 	"/>
		<polygon class="st0" data-iso3code="ERI" points="772.7,464 736.7,464 727.1,500 763.1,500 	"/>
		<polygon class="st0" data-iso3code="DJI" points="808.7,464 772.7,464 763.1,500 799.1,500 	"/>
		<polygon class="st0" data-iso3code="GMB" points="638.4,428 602.4,428 592.7,464 628.7,464 	"/>
		<polygon class="st0" data-iso3code="SEN" points="674.4,428 638.4,428 628.7,464 664.7,464 	"/>
		<polygon class="st0" data-iso3code="MLI" points="710.4,428 674.4,428 664.7,464 700.7,464 	"/>
		<polygon class="st0" data-iso3code="NER" points="746.4,428 710.4,428 700.7,464 736.7,464 	"/>
		<polygon class="st0" data-iso3code="SDN" points="782.4,428 746.4,428 736.7,464 772.7,464 	"/>
		<polygon class="st0" data-iso3code="TUN" points="720,392 684,392 674.4,428 710.4,428 	"/>
		<polygon class="st0" data-iso3code="LBY" points="756,392 720,392 710.4,428 746.4,428 	"/>
		<polygon class="st0" data-iso3code="EGY" points="792,392 756,392 746.4,428 782.4,428 	"/>
		<polygon class="st0" data-iso3code="GRC" points="811.3,320 775.3,320 765.6,356 801.6,356 	"/>
		<polygon class="st0" data-iso3code="CYP" points="847.3,320 811.3,320 801.6,356 837.6,356 	"/>
		<polygon class="st0" data-iso3code="LBN" points="883.3,320 847.3,320 837.6,356 873.6,356 	"/>
		<polygon class="st0" data-iso3code="SAU" points="919.3,320 883.3,320 873.6,356 909.6,356 	"/>
		<polygon class="st0" data-iso3code="ISR" points="837.6,356 801.6,356 792,392 828,392 	"/>
		<polygon class="st0" data-iso3code="QAT" points="873.6,356 837.6,356 828,392 864,392 	"/>
		<polygon class="st0" data-iso3code="ARE" points="909.6,356 873.6,356 864,392 900,392 	"/>
		<polygon class="st0" data-iso3code="YEM" points="864,392 828,392 818.4,428 854.4,428 	"/>
		<polygon class="st0" data-iso3code="OMN" points="900,392 864,392 854.4,428 890.4,428 	"/>
		<polygon class="st0" data-iso3code="MKD" points="856.9,284 820.9,284 811.3,320 847.3,320 	"/>
		<polygon class="st0" data-iso3code="JOR" points="892.9,284 856.9,284 847.3,320 883.3,320 	"/>
		<polygon class="st0" data-iso3code="KWT" points="928.9,284 892.9,284 883.3,320 919.3,320 	"/>
		<polygon class="st0" data-iso3code="IRN" points="964.9,284 928.9,284 919.3,320 955.3,320 	"/>
		<polygon class="st0" data-iso3code="PAK" points="1000.9,284 964.9,284 955.3,320 991.3,320 	"/>
		<polygon class="st0" data-iso3code="AFG" points="1036.9,284 1000.9,284 991.3,320 1027.3,320 	"/>
		<polygon class="st0" data-iso3code="BGD" points="1072.9,284 1036.9,284 1027.3,320 1063.3,320 	"/>
		<polygon class="st0" data-iso3code="NPL" points="1063.3,320 1027.3,320 1017.6,356 1053.6,356 	"/>
		<polygon class="st0" data-iso3code="THA" points="1099.3,320 1063.3,320 1053.6,356 1089.6,356 	"/>
		<polygon class="st0" data-iso3code="KHM" points="1135.3,320 1099.3,320 1089.6,356 1125.6,356 	"/>
		<polygon class="st0" data-iso3code="MYS" points="1089.6,356 1053.6,356 1044,392 1080,392 	"/>
		<polygon class="st0" data-iso3code="MMR" points="1108.9,284 1072.9,284 1063.3,320 1099.3,320 	"/>
		<polygon class="st0" data-iso3code="LAO" points="1144.9,284 1108.9,284 1099.3,320 1135.3,320 	"/>
		<polygon class="st0" data-iso3code="VNM" points="1180.9,284 1144.9,284 1135.3,320 1171.3,320 	"/>
		<polygon class="st0" data-iso3code="HRV" points="758.6,248 722.6,248 712.9,284 748.9,284 	"/>
		<polygon class="st0" data-iso3code="BIH" points="794.6,248 758.6,248 748.9,284 784.9,284 	"/>
		<polygon class="st0" data-iso3code="SRB" points="830.6,248 794.6,248 784.9,284 820.9,284 	"/>
		<polygon class="st0" data-iso3code="BGR" points="866.6,248 830.6,248 820.9,284 856.9,284 	"/>
		<polygon class="st0" data-iso3code="TUR" points="902.6,248 866.6,248 856.9,284 892.9,284 	"/>
		<polygon class="st0" data-iso3code="SYR" points="938.6,248 902.6,248 892.9,284 928.9,284 	"/>
		<polygon class="st0" data-iso3code="IRQ" points="974.6,248 938.6,248 928.9,284 964.9,284 	"/>
		<polygon class="st0" data-iso3code="ARM" points="984.2,212 948.2,212 938.6,248 974.6,248 	"/>
		<polygon class="st0" data-iso3code="GEO" points="1020.2,212 984.2,212 974.6,248 1010.6,248 	"/>
		<polygon class="st0" data-iso3code="UZB" points="1056.2,212 1020.2,212 1010.6,248 1046.6,248 	"/>
		<polygon class="st0" data-iso3code="KGZ" points="1092.2,212 1056.2,212 1046.6,248 1082.6,248 	"/>
		<polygon class="st0" data-iso3code="AZE" points="1010.6,248 974.6,248 964.9,284 1000.9,284 	"/>
		<polygon class="st0" data-iso3code="TKM" points="1046.6,248 1010.6,248 1000.9,284 1036.9,284 	"/>
		<polygon class="st0" data-iso3code="TJK" points="1082.6,248 1046.6,248 1036.9,284 1072.9,284 	"/>
		<polygon class="st0" data-iso3code="BTN" points="1118.6,248 1082.6,248 1072.9,284 1108.9,284 	"/>
		<polygon class="st0" data-iso3code="KOR" points="1154.6,248 1118.6,248 1108.9,284 1144.9,284 	"/>
		<polygon class="st0" data-iso3code="PRK" points="1191.9,176 1155.9,176 1146.2,212 1182.2,212 	"/>
		<polygon class="st0" data-iso3code="MNG" points="1201.5,140 1165.5,140 1155.9,176 1191.9,176 	"/>
		<polygon class="st0" data-iso3code="LIE" points="768.2,212 732.2,212 722.6,248 758.6,248 	"/>
		<polygon class="st0" data-iso3code="AUT" points="804.2,212 768.2,212 758.6,248 794.6,248 	"/>
		<polygon class="st0" data-iso3code="HUN" points="840.2,212 804.2,212 794.6,248 830.6,248 	"/>
		<polygon class="st0" data-iso3code="ROU" points="876.2,212 840.2,212 830.6,248 866.6,248 	"/>
		<polygon class="st0" data-iso3code="FRA" points="705.9,176 669.9,176 660.2,212 696.2,212 	"/>
		<polygon class="st0" data-iso3code="BEL" points="741.9,176 705.9,176 696.2,212 732.2,212 	"/>
		<polygon class="st0" data-iso3code="CHE" points="777.9,176 741.9,176 732.2,212 768.2,212 	"/>
		<polygon class="st0" data-iso3code="CZE" points="813.9,176 777.9,176 768.2,212 804.2,212 	"/>
		<polygon class="st0" data-iso3code="SVK" points="849.9,176 813.9,176 804.2,212 840.2,212 	"/>
		<polygon class="st0" data-iso3code="UKR" points="885.9,176 849.9,176 840.2,212 876.2,212 	"/>
		<polygon class="st0" data-iso3code="MDA" points="921.9,176 885.9,176 876.2,212 912.2,212 	"/>
		<polygon class="st0" data-iso3code="NLD" points="751.5,140 715.5,140 705.9,176 741.9,176 	"/>
		<polygon class="st0" data-iso3code="DEU" points="787.5,140 751.5,140 741.9,176 777.9,176 	"/>
		<polygon class="st0" data-iso3code="DNK" points="797.2,104 761.2,104 751.5,140 787.5,140 	"/>
		<polygon class="st0" data-iso3code="POL" points="823.5,140 787.5,140 777.9,176 813.9,176 	"/>
		<polygon class="st0" data-iso3code="LTU" points="859.5,140 823.5,140 813.9,176 849.9,176 	"/>
		<polygon class="st0" data-iso3code="BLR" points="895.5,140 859.5,140 849.9,176 885.9,176 	"/>
		<polygon class="st0" data-iso3code="LVA" points="905.2,104 869.2,104 859.5,140 895.5,140 	"/>
		<polygon class="st0" data-iso3code="EST" points="914.8,68 878.8,68 869.2,104 905.2,104 	"/>
		<polygon class="st0" data-iso3code="FIN" points="924.5,32 888.5,32 878.8,68 914.8,68 	"/>
		<polygon class="st0" data-iso3code="SWE" points="888.5,32 852.5,32 842.8,68 878.8,68 	"/>
		<polygon class="st0" data-iso3code="NOR" points="852.5,32 816.5,32 806.8,68 842.8,68 	"/>
		<polygon class="st0" data-iso3code="COL" points="306.6,356 270.6,356 261,392 297,392 	"/>
		<polygon class="st0" data-iso3code="VEN" points="342.6,356 306.6,356 297,392 333,392 	"/>
		<polygon class="st0" data-iso3code="ECU" points="297,392 261,392 251.4,428 287.4,428 	"/>
		<polygon class="st0" data-iso3code="GUY" points="333,392 297,392 287.4,428 323.4,428 	"/>
		<polygon class="st0" data-iso3code="PER" points="287.4,428 251.4,428 241.7,464 277.7,464 	"/>
		<polygon class="st0" data-iso3code="BOL" points="323.4,428 287.4,428 277.7,464 313.7,464 	"/>
		<polygon class="st0" data-iso3code="SUR" points="359.4,428 323.4,428 313.7,464 349.7,464 	"/>
		<polygon class="st0" data-iso3code="PRY" points="313.7,464 277.7,464 268.1,500 304.1,500 	"/>
		<polygon class="st0" data-iso3code="URY" points="349.7,464 313.7,464 304.1,500 340.1,500 	"/>
		<polygon class="st0" data-iso3code="CHL" points="304.1,500 268.1,500 258.4,536 294.4,536 	"/>
		<polygon class="st0" data-iso3code="CAN" points="267.5,32 213.5,32 199,86 253,86 	"/>
		<polygon class="st0" data-iso3code="IND" points="1027.3,320 973.3,320 958.8,374 1012.8,374 	"/>
		<polygon class="st0" data-iso3code="AUS" points="1152.3,626 1098.3,626 1083.8,680 1137.8,680 	"/>
		<polygon class="st0" data-iso3code="DZA" points="688.8,374 634.8,374 620.4,428 674.4,428 	"/>
		<polygon class="st0" data-iso3code="CHN" points="1151.1,194 1097.1,194 1082.6,248 1136.6,248 	"/>
		<polygon class="st0" data-iso3code="KAZ" points="1165.5,140 1111.5,140 1097.1,194 1151.1,194 	"/>
		<polygon class="st0" data-iso3code="RUS" points="1180,86 1126,86 1111.5,140 1165.5,140 	"/>
		<polygon class="st0" data-iso3code="BRA" points="413.4,428 359.4,428 344.9,482 398.9,482 	"/>
		<polygon class="st0" data-iso3code="ARG" points="312.4,536 258.4,536 243.9,590 297.9,590 	"/>
		<polygon class="st0" data-iso3code="USA" points="253,86 199,86 184.5,140 238.5,140 	"/>
	</g>
	<g id="labels">
		<text transform="matrix(1 0 0 1 212.448 115.9224)" class="st1 st2">US</text>
		<text transform="matrix(1 0 0 1 309.375 139.2602)" class="st1 st2">BS</text>
		<text transform="matrix(1 0 0 1 886.6631 90.2602)" class="st1 st2">EE</text>
		<text transform="matrix(1 0 0 1 187.3272 163.9995)" class="st1 st2">MX</text>
		<text transform="matrix(1 0 0 1 179.9512 200)" class="st1 st2">GT</text>
		<text transform="matrix(1 0 0 1 171.6026 235.9995)" class="st1 st2">SV</text>
		<text transform="matrix(1 0 0 1 205.9092 235.9995)" class="st1 st2">HN</text>
		<text transform="matrix(1 0 0 1 199.7207 272)" class="st1 st2">NI</text>
		<text transform="matrix(1 0 0 1 223.169 307.9995)" class="st1 st2">CR</text>
		<text transform="matrix(1 0 0 1 250.3242 344)" class="st1 st2">PA</text>
		<text transform="matrix(1 0 0 1 274.9698 379.2602)" class="st1 st2">CO</text>
		<text transform="matrix(1 0 0 1 267.1426 415.2607)" class="st1 st2">EC</text>
		<text transform="matrix(1 0 0 1 258.1553 451.2607)" class="st1 st2">PE</text>
		<text transform="matrix(1 0 0 1 292.3994 451.2607)" class="st1 st2">BO</text>
		<text transform="matrix(1 0 0 1 283.8623 487.2597)" class="st1 st2">PY</text>
		<text transform="matrix(1 0 0 1 274.8916 523.2607)" class="st1 st2">CL</text>
		<text transform="matrix(1 0 0 1 271.7608 565.9229)" class="st1 st2">AR</text>
		<text transform="matrix(1 0 0 1 551.5781 522.2607)" class="st1 st2">GN</text>
		<text transform="matrix(1 0 0 1 590.5469 522.2607)" class="st1 st2">LR</text>
		<text transform="matrix(1 0 0 1 581.9922 558.2607)" class="st1 st2">CI</text>
		<text transform="matrix(1 0 0 1 614.4453 558.2607)" class="st1 st2">NG</text>
		<text transform="matrix(1 0 0 1 603.7656 594.2598)" class="st1 st2">GQ</text>
		<text transform="matrix(1 0 0 1 594.958 630.2598)" class="st1 st2">AO</text>
		<text transform="matrix(1 0 0 1 631.5518 630.2598)" class="st1 st2">GA</text>
		<text transform="matrix(1 0 0 1 620.8545 666.2598)" class="st1 st2">ZM</text>
		<text transform="matrix(1 0 0 1 656.916 666.2598)" class="st1 st2">BW</text>
		<text transform="matrix(1 0 0 1 693.6895 666.2598)" class="st1 st2">ZW</text>
		<text transform="matrix(1 0 0 1 649.0264 702.2598)" class="st1 st2">NA</text>
		<text transform="matrix(1 0 0 1 686.835 702.2598)" class="st1 st2">SZ</text>
		<text transform="matrix(1 0 0 1 676.4434 738.2598)" class="st1 st2">ZA</text>
		<text transform="matrix(1 0 0 1 723.9141 702.2598)" class="st1 st2">LS</text>
		<text transform="matrix(1 0 0 1 806.3536 697.7988)" class="st1 st2">MG</text>
		<text transform="matrix(1 0 0 1 860.7902 697.7988)" class="st1 st2">MU</text>
		<text transform="matrix(1 0 0 1 786.4279 670.6835)" class="st1 st2">KM</text>
		<text transform="matrix(1 0 0 1 877.5812 643.7724)" class="st1 st2">SC</text>
		<text transform="matrix(1 0 0 1 664.0859 630.2598)" class="st1 st2">MW</text>
		<text transform="matrix(1 0 0 1 703.2529 630.2598)" class="st1 st2">MZ</text>
		<text transform="matrix(1 0 0 1 1162.0244 517.3799)" class="st1 st2">PG</text>
		<text transform="matrix(1 0 0 1 1209.9844 472.9414)" class="st1 st2">FM</text>
		<text transform="matrix(1 0 0 1 1269.6465 446.416)" class="st1 st2">MH</text>
		<text transform="matrix(1 0 0 1 1327.499 445.416)" class="st1 st2">KI</text>
		<text transform="matrix(1 0 0 1 1229.8896 500.1103)" class="st1 st2">NR</text>
		<text transform="matrix(1 0 0 1 1249.5801 527.3955)" class="st1 st2">TU</text>
		<text transform="matrix(1 0 0 1 1302.9961 527.3955)" class="st1 st2">WS</text>
		<text transform="matrix(1 0 0 1 1248.8936 598.126)" class="st1 st2">TO</text>
		<text transform="matrix(1 0 0 1 1182.7607 437.1152)" class="st1 st2">PW</text>
		<text transform="matrix(1 0 0 1 1182.9473 544.3799)" class="st1 st2">SB</text>
		<text transform="matrix(1 0 0 1 1205.2344 571.3799)" class="st1 st2">FJ</text>
		<text transform="matrix(1 0 0 1 1175.3994 571.3799)" class="st1 st2">VU</text>
		<text transform="matrix(1 0 0 1 1161.1285 723.4229)" class="st1 st2">NZ</text>
		<text transform="matrix(1 0 0 1 1111.4701 655.9229)" class="st1 st2">AU</text>
		<text transform="matrix(1 0 0 1 640.8535 594.2598)" class="st1 st2">CG</text>
		<text transform="matrix(1 0 0 1 681.7666 594.2598)" class="st1 st2">BI</text>
		<text transform="matrix(1 0 0 1 712.7344 594.2598)" class="st1 st2">RW</text>
		<text transform="matrix(1 0 0 1 752.5947 594.2598)" class="st1 st2">TZ</text>
		<text transform="matrix(1 0 0 1 649.0762 558.2607)" class="st1 st2">CM</text>
		<text transform="matrix(1 0 0 1 687.3154 558.2607)" class="st1 st2">CD</text>
		<text transform="matrix(1 0 0 1 723.4316 558.2607)" class="st1 st2">UG</text>
		<text transform="matrix(1 0 0 1 762.0137 558.2607)" class="st1 st2">KE</text>
		<text transform="matrix(1 0 0 1 623.9814 522.2607)" class="st1 st2">GH</text>
		<text transform="matrix(1 0 0 1 661.5742 522.2607)" class="st1 st2">TG</text>
		<text transform="matrix(1 0 0 1 701.1191 522.2607)" class="st1 st2">BJ</text>
		<text transform="matrix(1 0 0 1 734.8145 522.2607)" class="st1 st2">CF</text>
		<text transform="matrix(1 0 0 1 772.0908 522.2607)" class="st1 st2">ET</text>
		<text transform="matrix(1 0 0 1 806.2812 522.2607)" class="st1 st2">SO</text>
		<text transform="matrix(1 0 0 1 1109.1318 518.0771)" class="st1 st2">TL</text>
		<text transform="matrix(1 0 0 1 559.3057 486.2597)" class="st1 st2">GW</text>
		<text transform="matrix(1 0 0 1 600.7588 486.2597)" class="st1 st2">SL</text>
		<text transform="matrix(1 0 0 1 636.209 486.2597)" class="st1 st2">BF</text>
		<text transform="matrix(1 0 0 1 671.6855 486.2597)" class="st1 st2">TD</text>
		<text transform="matrix(1 0 0 1 708.9453 486.2597)" class="st1 st2">SS</text>
		<text transform="matrix(1 0 0 1 744.8271 486.2597)" class="st1 st2">ER</text>
		<text transform="matrix(1 0 0 1 782.7705 486.2597)" class="st1 st2">DJ</text>
		<text transform="matrix(1 0 0 1 1089.4033 491.0771)" class="st1 st2">ID</text>
		<text transform="matrix(1 0 0 1 319.627 487.2597)" class="st1 st2">UY</text>
		<text transform="matrix(1 0 0 1 569.9131 450.2597)" class="st1 st2">MR</text>
		<text transform="matrix(1 0 0 1 605.1387 450.2597)" class="st1 st2">GM</text>
		<text transform="matrix(1 0 0 1 645.1797 450.2597)" class="st1 st2">SN</text>
		<text transform="matrix(1 0 0 1 679.9912 450.2597)" class="st1 st2">ML</text>
		<text transform="matrix(1 0 0 1 717.8447 450.2597)" class="st1 st2">NE</text>
		<text transform="matrix(1 0 0 1 753.7988 450.2597)" class="st1 st2">SD</text>
		<text transform="matrix(1 0 0 1 1095.3809 464.0761)" class="st1 st2">BN</text>
		<text transform="matrix(1 0 0 1 330.5674 451.2607)" class="st1 st2">SR</text>
		<text transform="matrix(1 0 0 1 372.7493 457.9229)" class="st1 st2">BR</text>
		<text transform="matrix(1 0 0 1 597.7422 414.2607)" class="st1 st2">MA</text>
		<text transform="matrix(1 0 0 1 648.1434 403.9223)" class="st1 st2">DZ</text>
		<text transform="matrix(1 0 0 1 691.624 414.2607)" class="st1 st2">TN</text>
		<text transform="matrix(1 0 0 1 728.5508 414.2607)" class="st1 st2">LY</text>
		<text transform="matrix(1 0 0 1 763.4785 414.2607)" class="st1 st2">EG</text>
		<text transform="matrix(1 0 0 1 834.8906 414.2607)" class="st1 st2">YE</text>
		<text transform="matrix(1 0 0 1 867.0205 414.2607)" class="st1 st2">OM</text>
		<text transform="matrix(1 0 0 1 984.8389 410.0337)" class="st1 st2">LK</text>
		<text transform="matrix(1 0 0 1 930.5654 410.229)" class="st1 st2">BH</text>
		<text transform="matrix(1 0 0 1 943.913 454.1826)" class="st1 st2">MV</text>
		<text transform="matrix(1 0 0 1 1058.8418 378.3164)" class="st1 st2">MY</text>
		<text transform="matrix(1 0 0 1 1130.2969 437.0771)" class="st1 st2">PH</text>
		<text transform="matrix(1 0 0 1 1083.1182 410.499)" class="st1 st2">SG</text>
		<text transform="matrix(1 0 0 1 302.1075 415.2607)" class="st1 st2">GY</text>
		<text transform="matrix(1 0 0 1 811.6133 378.2607)" class="st1 st2">IL</text>
		<text transform="matrix(1 0 0 1 842.293 378.2607)" class="st1 st2">QA</text>
		<text transform="matrix(1 0 0 1 880.5156 378.2607)" class="st1 st2">AE</text>
		<text transform="matrix(1 0 0 1 1069.9053 342.3169)" class="st1 st2">TH</text>
		<text transform="matrix(1 0 0 1 1105.7705 342.3169)" class="st1 st2">KH</text>
		<text transform="matrix(1 0 0 1 314.2803 379.2602)" class="st1 st2">VE</text>
		<text transform="matrix(1 0 0 1 357.8045 399.4224)" class="st1 st2">TT</text>
		<text transform="matrix(1 0 0 1 503.3438 490.4521)" class="st1 st2">CV</text>
		<text transform="matrix(1 0 0 1 542.58 615.5626)" class="st1 st2">ST</text>
		<text transform="matrix(1 0 0 1 745.9111 342.2602)" class="st1 st2">AL</text>
		<text transform="matrix(1 0 0 1 780.1016 342.2602)" class="st1 st2">GR</text>
		<text transform="matrix(1 0 0 1 816.5859 342.2602)" class="st1 st2">CY</text>
		<text transform="matrix(1 0 0 1 854.9346 342.2602)" class="st1 st2">LB</text>
		<text transform="matrix(1 0 0 1 890.3936 342.2602)" class="st1 st2">SA</text>
		<text transform="matrix(1 0 0 1 988.1129 349.9224)" class="st1 st2">IN</text>
		<text transform="matrix(1 0 0 1 1034.9932 342.2602)" class="st1 st2">NP</text>
		<text transform="matrix(1 0 0 1 1116.71 306.3154)" class="st1 st2">LA</text>
		<text transform="matrix(1 0 0 1 1152.0713 306.3154)" class="st1 st2">VN</text>
		<text transform="matrix(1 0 0 1 788.6074 306.2597)" class="st1 st2">ME</text>
		<text transform="matrix(1 0 0 1 824.8271 306.2597)" class="st1 st2">MK</text>
		<text transform="matrix(1 0 0 1 865.0381 306.2597)" class="st1 st2">JO</text>
		<text transform="matrix(1 0 0 1 897.6084 306.2597)" class="st1 st2">KW</text>
		<text transform="matrix(1 0 0 1 939.043 306.2597)" class="st1 st2">IR</text>
		<text transform="matrix(1 0 0 1 972.7744 306.2597)" class="st1 st2">PK</text>
		<text transform="matrix(1 0 0 1 1009.3682 306.2597)" class="st1 st2">AF</text>
		<text transform="matrix(1 0 0 1 1044.2686 306.2597)" class="st1 st2">BD</text>
		<text transform="matrix(1 0 0 1 1075.1592 306.2466)" class="st1 st2">MM</text>
		<text transform="matrix(1 0 0 1 695.3613 270.2602)" class="st1 st2">IT</text>
		<text transform="matrix(1 0 0 1 679.6357 306.2739)" class="st1 st2">SM</text>
		<text transform="matrix(1 0 0 1 727.4287 270.2602)" class="st1 st2">HR</text>
		<text transform="matrix(1 0 0 1 764.1836 270.2602)" class="st1 st2">BA</text>
		<text transform="matrix(1 0 0 1 801.1641 270.2602)" class="st1 st2">RS</text>
		<text transform="matrix(1 0 0 1 835.9131 270.2602)" class="st1 st2">BG</text>
		<text transform="matrix(1 0 0 1 874.0186 270.2602)" class="st1 st2">TR</text>
		<text transform="matrix(1 0 0 1 909.8291 270.2602)" class="st1 st2">SY</text>
		<text transform="matrix(1 0 0 1 947.5928 270.2602)" class="st1 st2">IQ</text>
		<text transform="matrix(1 0 0 1 982.5752 270.2602)" class="st1 st2">AZ</text>
		<text transform="matrix(1 0 0 1 1016.7119 270.2602)" class="st1 st2">TM</text>
		<text transform="matrix(1 0 0 1 1058.5254 270.2602)" class="st1 st2">TJ</text>
		<text transform="matrix(1 0 0 1 1091.9424 270.2602)" class="st1 st2">BT</text>
		<text transform="matrix(1 0 0 1 1127.8252 270.2602)" class="st1 st2">KR</text>
		<text transform="matrix(1 0 0 1 546.9756 270.3383)" class="st1 st2">PT</text>
		<text transform="matrix(1 0 0 1 583.4609 270.3383)" class="st1 st2">ES</text>
		<text transform="matrix(1 0 0 1 591.3447 234.2607)" class="st1 st2">AD</text>
		<text transform="matrix(1 0 0 1 627.7158 234.2607)" class="st1 st2">MC</text>
		<text transform="matrix(1 0 0 1 665.8652 234.2607)" class="st1 st2">LU</text>
		<text transform="matrix(1 0 0 1 704.8164 234.2607)" class="st1 st2">SI</text>
		<text transform="matrix(1 0 0 1 741.0244 234.2607)" class="st1 st2">LI</text>
		<text transform="matrix(1 0 0 1 774.5928 234.2607)" class="st1 st2">AT</text>
		<text transform="matrix(1 0 0 1 809.3506 234.2607)" class="st1 st2">HU</text>
		<text transform="matrix(1 0 0 1 845.3047 234.2607)" class="st1 st2">RO</text>
		<text transform="matrix(1 0 0 1 952.7812 234.2607)" class="st1 st2">AM</text>
		<text transform="matrix(1 0 0 1 991.3184 234.2607)" class="st1 st2">GE</text>
		<text transform="matrix(1 0 0 1 1028.1631 234.2607)" class="st1 st2">UZ</text>
		<text transform="matrix(1 0 0 1 1063.5869 234.2607)" class="st1 st2">KG</text>
		<text transform="matrix(1 0 0 1 1109.9092 223.9224)" class="st1 st2">CN</text>
		<text transform="matrix(1 0 0 1 1163.3369 199.228)" class="st1 st2">KP</text>
		<text transform="matrix(1 0 0 1 1212.7588 237.2607)" class="st1 st2">JP</text>
		<text transform="matrix(1 0 0 1 675.7354 198.2602)" class="st1 st2">FR</text>
		<text transform="matrix(1 0 0 1 711.7256 198.2602)" class="st1 st2">BE</text>
		<text transform="matrix(1 0 0 1 746.3027 198.2602)" class="st1 st2">CH</text>
		<text transform="matrix(1 0 0 1 783.6338 198.2602)" class="st1 st2">CZ</text>
		<text transform="matrix(1 0 0 1 820.7949 198.2602)" class="st1 st2">SK</text>
		<text transform="matrix(1 0 0 1 855.8213 198.2602)" class="st1 st2">UA</text>
		<text transform="matrix(1 0 0 1 889.3818 198.2602)" class="st1 st2">MD</text>
		<text transform="matrix(1 0 0 1 1125.2988 169.9224)" class="st1 st2">KZ</text>
		<text transform="matrix(1 0 0 1 1169.6494 163.2285)" class="st1 st2">MN</text>
		<text transform="matrix(1 0 0 1 295.417 193.2607)" class="st1 st2">JM</text>
		<text transform="matrix(1 0 0 1 321.8105 193.2607)" class="st1 st2">HT</text>
		<text transform="matrix(1 0 0 1 307.3457 246.5146)" class="st1 st2">KN</text>
		<text transform="matrix(1 0 0 1 333.7392 246.5146)" class="st1 st2">AG</text>
		<text transform="matrix(1 0 0 1 351.289 273.9985)" class="st1 st2">DM</text>
		<text transform="matrix(1 0 0 1 374.122 301.4809)" class="st1 st2">LC</text>
		<text transform="matrix(1 0 0 1 392.956 328.9648)" class="st1 st2">VC</text>
		<text transform="matrix(1 0 0 1 385.6689 355.9736)" class="st1 st2">GD</text>
		<text transform="matrix(1 0 0 1 420.1552 328.9648)" class="st1 st2">BB</text>
		<text transform="matrix(1 0 0 1 346.7383 193.2607)" class="st1 st2">DO</text>
		<text transform="matrix(1 0 0 1 634.501 139.5063)" class="st1 st2">IE</text>
		<text transform="matrix(1 0 0 1 659.1143 139.5063)" class="st1 st2">GB</text>
		<text transform="matrix(1 0 0 1 667.5338 345.4224)" class="st1 st2">MT</text>
		<text transform="matrix(1 0 0 1 721.6855 162.2607)" class="st1 st2">NL</text>
		<text transform="matrix(1 0 0 1 757.082 162.2607)" class="st1 st2">DE</text>
		<text transform="matrix(1 0 0 1 794.3594 162.2607)" class="st1 st2">PL</text>
		<text transform="matrix(1 0 0 1 831.6826 162.2607)" class="st1 st2">LT</text>
		<text transform="matrix(1 0 0 1 865.7734 162.2607)" class="st1 st2">BY</text>
		<text transform="matrix(1 0 0 1 1139.1777 115.9224)" class="st1 st2">RU</text>
		<text transform="matrix(1 0 0 1 226.792 163.9995)" class="st1 st2">BZ</text>
		<text transform="matrix(1 0 0 1 300.6416 166.2602)" class="st1 st2">CU</text>
		<text transform="matrix(1 0 0 1 766.8047 126.2597)" class="st1 st2">DK</text>
		<text transform="matrix(1 0 0 1 877.9248 126.2597)" class="st1 st2">LV</text>
		<text transform="matrix(1 0 0 1 226.437 61.9224)" class="st1 st2">CA</text>
		<text transform="matrix(1 0 0 1 644.8887 67.7602)" class="st1 st2">IS</text>
		<text transform="matrix(1 0 0 1 820.9258 54.2602)" class="st1 st2">NO</text>
		<text transform="matrix(1 0 0 1 860.0215 54.2602)" class="st1 st2">SE</text>
		<text transform="matrix(1 0 0 1 899.0811 54.2602)" class="st1 st2">FI</text>
	</g>
</g>
</svg>
